<?xml version="1.0" encoding="UTF-8" standalone="no"?>
<svg xmlns:dc="http://purl.org/dc/elements/1.1/" xmlns:cc="http://creativecommons.org/ns#" xmlns:rdf="http://www.w3.org/1999/02/22-rdf-syntax-ns#" xmlns:svg="http://www.w3.org/2000/svg" xmlns="http://www.w3.org/2000/svg" xmlns:sodipodi="http://sodipodi.sourceforge.net/DTD/sodipodi-0.dtd" xmlns:inkscape="http://www.inkscape.org/namespaces/inkscape" width="32px" height="32px" viewBox="0 0 32 32.000001" id="svg2" version="1.1" inkscape:version="0.91 r13725" sodipodi:docname="12 sales analysis report progress dollar finance analytics.svg">
  <defs id="defs4"/>
  <sodipodi:namedview id="base" pagecolor="#ffffff" bordercolor="#666666" borderopacity="1.0" inkscape:pageopacity="0.0" inkscape:pageshadow="2" inkscape:zoom="45.254834" inkscape:cx="21.463988" inkscape:cy="14.349313" inkscape:document-units="px" inkscape:current-layer="layer1" showgrid="true" units="px" inkscape:snap-bbox="true" inkscape:bbox-nodes="true" inkscape:snap-bbox-midpoints="true" inkscape:bbox-paths="true" inkscape:snap-bbox-edge-midpoints="true" inkscape:window-width="1920" inkscape:window-height="1027" inkscape:window-x="-8" inkscape:window-y="-8" inkscape:window-maximized="1" inkscape:snap-global="false">
    <inkscape:grid type="xygrid" id="grid3366"/>
  </sodipodi:namedview>
  
  <g inkscape:label="Layer 1" inkscape:groupmode="layer" id="layer1" transform="translate(0,-1020.3622)">
    <path style="color:#000000;font-style:normal;font-variant:normal;font-weight:normal;font-stretch:normal;font-size:medium;line-height:normal;font-family:sans-serif;text-indent:0;text-align:start;text-decoration:none;text-decoration-line:none;text-decoration-style:solid;text-decoration-color:#000000;letter-spacing:normal;word-spacing:normal;text-transform:none;direction:ltr;block-progression:tb;writing-mode:lr-tb;baseline-shift:baseline;text-anchor:start;white-space:normal;clip-rule:nonzero;display:inline;overflow:visible;visibility:visible;opacity:1;isolation:auto;mix-blend-mode:normal;color-interpolation:sRGB;color-interpolation-filters:linearRGB;solid-color:#000000;solid-opacity:1;fill:#000000;fill-opacity:1;fill-rule:nonzero;stroke:none;stroke-width:1;stroke-linecap:round;stroke-linejoin:round;stroke-miterlimit:4;stroke-dasharray:none;stroke-dashoffset:0;stroke-opacity:1;color-rendering:auto;image-rendering:auto;shape-rendering:auto;text-rendering:auto;enable-background:accumulate" d="M 5.9101562 0.75 C 4.7229116 0.75 3.75 1.72015 3.75 2.90625 L 3.75 10.566406 A 0.50005 0.50005 0 1 0 4.75 10.566406 L 4.75 2.90625 C 4.75 2.25835 5.258121 1.75 5.9101562 1.75 L 22.269531 1.75 L 22.269531 4.5800781 C 22.269531 4.5800781 22.262931 5.096 22.53125 5.625 C 22.799555 6.1541 23.435445 6.7167969 24.429688 6.7167969 L 27.25 6.7167969 L 27.25 29.8125 C 27.25 30.4604 26.741892 30.966797 26.089844 30.966797 L 5.9101562 30.966797 C 5.2581211 30.966797 4.75 30.4604 4.75 29.8125 L 4.75 25.310547 L 4.75 17.066406 L 4.75 13.402344 A 0.50005 0.50005 0 1 0 3.75 13.402344 L 3.75 17.066406 L 3.75 25.310547 L 3.75 29.8125 C 3.75 30.9987 4.7229116 31.966797 5.9101562 31.966797 L 26.089844 31.966797 C 27.277096 31.966797 28.25 30.9987 28.25 29.8125 L 28.25 6.2167969 A 0.50005 0.50005 0 0 0 28.25 6.2011719 A 0.50005 0.50005 0 0 0 28.248047 6.1660156 A 0.50005 0.50005 0 0 0 28.246094 6.1503906 A 0.50005 0.50005 0 0 0 28.240234 6.1171875 A 0.50005 0.50005 0 0 0 28.236328 6.1015625 A 0.50005 0.50005 0 0 0 28.222656 6.0546875 A 0.50005 0.50005 0 0 0 28.210938 6.0214844 A 0.50005 0.50005 0 0 0 28.205078 6.0078125 A 0.50005 0.50005 0 0 0 28.189453 5.9765625 A 0.50005 0.50005 0 0 0 28.181641 5.9628906 A 0.50005 0.50005 0 0 0 28.162109 5.9335938 A 0.50005 0.50005 0 0 0 28.154297 5.921875 A 0.50005 0.50005 0 0 0 28.132812 5.8945312 A 0.50005 0.50005 0 0 0 28.123047 5.8828125 A 0.50005 0.50005 0 0 0 28.103516 5.8632812 L 23.123047 0.89648438 A 0.50005 0.50005 0 0 0 23.001953 0.80664062 A 0.50005 0.50005 0 0 0 22.910156 0.76953125 A 0.50005 0.50005 0 0 0 22.769531 0.75 L 5.9101562 0.75 z M 23.269531 2.4570312 L 26.369141 5.5449219 L 26.541016 5.7167969 L 24.429688 5.7167969 C 23.764069 5.7167969 23.570488 5.461075 23.423828 5.171875 C 23.277168 4.882675 23.269531 4.5800781 23.269531 4.5800781 L 23.269531 2.4570312 z M 5.9921875 5.703125 L 5.9921875 5.7167969 A 0.50005 0.50005 0 0 0 5.5 6.2246094 L 5.5 26.216797 A 0.50005 0.50005 0 0 0 5.8457031 26.691406 A 0.50005 0.50005 0 0 0 5.890625 26.703125 A 0.50005 0.50005 0 0 0 5.9042969 26.703125 A 0.50005 0.50005 0 0 0 5.9160156 26.703125 A 0.50005 0.50005 0 0 0 5.9433594 26.703125 A 0.50005 0.50005 0 0 0 5.9941406 26.703125 A 0.50005 0.50005 0 0 0 6 26.703125 L 25.992188 26.703125 A 0.50005 0.50005 0 1 0 25.992188 25.703125 L 6.5 25.703125 L 6.5 6.2109375 A 0.50005 0.50005 0 0 0 5.9921875 5.703125 z M 9 6 L 9 7 L 10 7 L 10 6 L 9 6 z M 11 6 L 11 7 L 14 7 L 14 6 L 11 6 z M 9 8 L 9 9 L 10 9 L 10 8 L 9 8 z M 11 8 L 11 9 L 14 9 L 14 8 L 11 8 z M 17.982422 11.904297 C 15.106427 11.904297 12.785304 14.239631 12.771484 17.103516 C 12.345822 17.297573 12.042978 17.726941 12.042969 18.220703 C 12.042972 18.399657 12.08774 18.566628 12.158203 18.720703 L 9.1621094 22.347656 C 9.0259365 22.294843 8.8802088 22.263672 8.7265625 22.263672 C 8.0548326 22.263672 7.5000133 22.818434 7.5 23.490234 C 7.5000133 24.161934 8.0548326 24.716797 8.7265625 24.716797 C 9.3982923 24.716797 9.9531117 24.161934 9.953125 23.490234 C 9.953122 23.339257 9.9202153 23.194736 9.8691406 23.060547 L 12.90625 19.384766 C 13.021958 19.421487 13.1425 19.447266 13.269531 19.447266 C 13.464489 19.447266 13.641851 19.389404 13.806641 19.306641 L 17.869141 21.751953 C 17.866146 21.786535 17.859371 21.820178 17.859375 21.855469 C 17.859388 22.527169 18.414207 23.082031 19.085938 23.082031 C 19.757666 23.082031 20.312487 22.527169 20.3125 21.855469 C 20.312521 21.679964 20.271042 21.513056 20.203125 21.361328 L 24.523438 15.746094 C 24.643607 15.786 24.769681 15.8125 24.902344 15.8125 C 25.574074 15.8125 26.128893 15.257638 26.128906 14.585938 C 26.128893 13.914137 25.574074 13.357422 24.902344 13.357422 C 24.230614 13.357422 23.675795 13.914138 23.675781 14.585938 C 23.675785 14.758304 23.715578 14.920741 23.78125 15.070312 L 23.085938 15.972656 C 22.555888 13.647358 20.468492 11.904297 17.982422 11.904297 z M 17.982422 12.904297 C 20.316967 12.904297 22.203705 14.778667 22.21875 17.101562 L 19.455078 20.691406 C 19.337639 20.653475 19.215144 20.628906 19.085938 20.628906 C 18.815525 20.628906 18.576999 20.735489 18.373047 20.886719 L 14.453125 18.529297 C 14.479776 18.429676 14.498045 18.328092 14.498047 18.220703 C 14.498037 17.72887 14.195063 17.302568 13.771484 17.107422 C 13.783181 14.778239 15.645084 12.904297 17.982422 12.904297 z M 17.994141 14 L 17.994141 14.005859 C 17.810503 14.005859 17.665094 14.179681 17.667969 14.363281 L 17.667969 14.652344 C 17.016124 14.789644 16.505859 15.318922 16.505859 15.982422 C 16.505859 16.740822 17.172162 17.32155 17.955078 17.34375 C 17.963278 17.34405 17.970296 17.34405 17.978516 17.34375 C 17.985616 17.34385 17.9929 17.34375 18 17.34375 C 18.48551 17.34375 18.830078 17.673122 18.830078 18.044922 C 18.830078 18.414422 18.488868 18.742294 18.007812 18.746094 L 17.996094 18.746094 L 17.994141 18.746094 C 17.512364 18.746094 17.169922 18.414622 17.169922 18.044922 C 17.176322 17.595322 16.499476 17.595322 16.505859 18.044922 C 16.505859 18.699022 17.026324 19.167041 17.667969 19.306641 L 17.667969 19.669922 C 17.661669 20.119622 18.338366 20.119622 18.332031 19.669922 L 18.332031 19.306641 C 18.97376 19.167141 19.494141 18.699222 19.494141 18.044922 C 19.494141 17.355122 18.999249 16.999972 18.226562 16.763672 C 18.005578 16.657772 18.05936 16.691203 18.001953 16.658203 L 18 16.658203 C 17.514514 16.658203 17.169922 16.330584 17.169922 15.958984 C 17.169922 15.592284 17.507265 15.268466 17.982422 15.259766 C 17.994972 15.260566 18.006981 15.260566 18.019531 15.259766 C 18.493846 15.269766 18.830078 15.590731 18.830078 15.957031 C 18.823678 16.406731 19.500524 16.406731 19.494141 15.957031 C 19.494141 15.293531 18.983876 14.764253 18.332031 14.626953 L 18.332031 14.337891 C 18.334931 14.150191 18.18185 13.9971 17.994141 14 z M 24.902344 14.357422 C 25.03364 14.357422 25.128904 14.454438 25.128906 14.585938 C 25.128904 14.717238 25.033636 14.8125 24.902344 14.8125 C 24.771047 14.8125 24.675784 14.717437 24.675781 14.585938 C 24.675784 14.454637 24.771051 14.357422 24.902344 14.357422 z M 13.269531 17.992188 C 13.400828 17.992188 13.498044 18.089203 13.498047 18.220703 C 13.498044 18.352003 13.400827 18.447266 13.269531 18.447266 C 13.138235 18.447266 13.042971 18.352303 13.042969 18.220703 C 13.042971 18.089403 13.138239 17.992188 13.269531 17.992188 z M 19.085938 21.628906 C 19.217249 21.628906 19.312515 21.723869 19.3125 21.855469 C 19.312497 21.986769 19.21723 22.082031 19.085938 22.082031 C 18.954641 22.082031 18.859378 21.987069 18.859375 21.855469 C 18.85936 21.724169 18.954625 21.628906 19.085938 21.628906 z M 8.7265625 23.263672 C 8.857859 23.263672 8.9531224 23.358634 8.953125 23.490234 C 8.9531224 23.621534 8.857859 23.716797 8.7265625 23.716797 C 8.595266 23.716797 8.5000026 23.621734 8.5 23.490234 C 8.5000026 23.358934 8.595266 23.263672 8.7265625 23.263672 z M 8 29 L 8 30 L 24 30 L 24 29 L 8 29 z " transform="translate(0,1020.3622)" id="path10359"/>
  </g>

	
	
	<metadata>
		<rdf:RDF xmlns:rdf="http://www.w3.org/1999/02/22-rdf-syntax-ns#" xmlns:rdfs="http://www.w3.org/2000/01/rdf-schema#" xmlns:dc="http://purl.org/dc/elements/1.1/">
			<rdf:Description about="https://iconscout.com/legal#licenses" dc:title="Sales, Analysis, Report, Progress, Dollar, Finance, Analytics" dc:description="Sales, Analysis, Report, Progress, Dollar, Finance, Analytics" dc:publisher="Iconscout" dc:date="2016-12-14" dc:format="image/svg+xml" dc:language="en">
				<dc:creator>
					<rdf:Bag>
						<rdf:li>Chamestudio</rdf:li>
					</rdf:Bag>
				</dc:creator>
			</rdf:Description>
		</rdf:RDF>
    </metadata></svg>
